<?xml version="1.0" encoding="UTF-8"?>
<!DOCTYPE svg PUBLIC "-//W3C//DTD SVG 1.1//EN" "http://www.w3.org/Graphics/SVG/1.1/DTD/svg11.dtd">
<!-- Creator: CorelDRAW 2018 (64-Bit) -->
<svg xmlns="http://www.w3.org/2000/svg" xml:space="preserve" width="3.67998in" height="1.99998in" version="1.1" style="shape-rendering:geometricPrecision; text-rendering:geometricPrecision; image-rendering:optimizeQuality; fill-rule:evenodd; clip-rule:evenodd"
viewBox="0 0 3679.98 1999.98"
 xmlns:xlink="http://www.w3.org/1999/xlink">
 <defs>
  <style type="text/css">
   <![CDATA[
    .fil0 {fill:#060606;fill-rule:nonzero}
    .fil3 {fill:#D3B178;fill-rule:nonzero}
    .fil1 {fill:#E5E6E4;fill-rule:nonzero}
    .fil2 {fill:url(#id0)}
   ]]>
  </style>
  <linearGradient id="id0" gradientUnits="userSpaceOnUse" x1="1864.37" y1="-61.99" x2="1868.5" y2="1000.08">
   <stop offset="0" style="stop-opacity:1; stop-color:#D3B178"/>
   <stop offset="0.282353" style="stop-opacity:1; stop-color:#DCCBAE"/>
   <stop offset="0.568627" style="stop-opacity:1; stop-color:#D3B178"/>
   <stop offset="0.901961" style="stop-opacity:1; stop-color:#E5E6E4"/>
   <stop offset="1" style="stop-opacity:1; stop-color:#E5E6E4"/>
  </linearGradient>
 </defs>
 <g id="Layer_x0020_1">
  <metadata id="CorelCorpID_0Corel-Layer"/>
  <path class="fil0" d="M715.35 1043.72c3.13,1.9 5.91,3.8 8.81,5.71 -2.73,-2.61 -5.71,-4.45 -8.81,-5.71z"/>
  <path class="fil0" d="M715.35 1043.72c3.13,1.9 5.91,3.8 8.81,5.71 -2.73,-2.61 -5.71,-4.45 -8.81,-5.71z"/>
  <path class="fil1" d="M1198.85 1037.68c2.59,-1.95 5.05,-4.11 7.35,-6.47l-11.91 0.08 4.56 6.39z"/>
  <polygon class="fil1" points="2562.57,1023.29 2627.15,1078.71 2625.41,1022.92 "/>
  <path class="fil1" d="M271.81 1404.06c-13.71,0.05 -28.33,0.4 -43.44,1.01 -14.3,0.64 -29.04,1.53 -43.81,2.63l-3.04 0.22 0.51 -3.02c1.77,-10.55 3.56,-20.89 5.31,-31.1l9.33 -54.37c8.52,-40.56 15.15,-81.78 22.33,-127.61l1.35 -8.54c1.78,-11.38 3.55,-22.72 5.36,-34 1.35,-10.98 3.79,-21.49 6.37,-32.63 3.6,-15.53 7.33,-31.59 8.22,-50.13l4.79 -0.06c1.03,14.5 1.89,29.53 2.77,44.95 0.15,12.96 0.8,26.48 1.99,41.45 0.94,11.97 2.24,25.02 4.08,41.08 1.03,8.83 2.1,17.66 3.18,26.47 2.22,18.2 4.53,37.04 6.25,55.66l3.67 41.72c1.24,13.86 2.47,27.76 3.64,41.73l3.74 44.51 -2.59 0.01zm117.32 85.5c-1.5,-10.09 -2.85,-21 -4.13,-33.13 -2.06,-19.68 -3.59,-39.78 -5.07,-59.22 -0.81,-10.4 -1.6,-20.75 -2.47,-31.11l-0.04 -0.48 0.15 -0.48c1.61,-4.84 3.15,-9.72 4.7,-14.6l1.94 -6.11c0.74,-2.26 1.56,-4.6 2.4,-7 4.12,-11.6 8.38,-23.62 3.39,-34.31 -1.59,-3.39 -4.22,-6.13 -7,-9.04 -1.11,-1.15 -2.2,-2.28 -3.22,-3.45 -3.9,-4.46 -7.37,-9.13 -10.93,-14.71l-0.31 -0.48 -0.44 -4.35 -4.67 -44.4c-1.6,-14.82 -3.2,-29.6 -4.94,-44.25 -2.47,-27.18 -6.09,-55.48 -9.59,-82.84 -6.03,-47.23 -12.28,-96.07 -13,-141.54 -1.4,-14.23 -2.84,-28.65 -4.27,-43.09l-0.17 -1.68c-0.12,-1.18 -1.06,-2.12 -2.24,-2.25 -49.12,-5.37 -98.91,-11.06 -147.99,-16.93 -0.09,-0.02 -0.2,-0.02 -0.3,-0.02 -1.19,0 -2.25,0.87 -2.48,2.06l-19.9 108.45c-11.31,55.65 -21.43,113.7 -31.23,169.84 -5.92,33.93 -12.05,69.02 -18.37,103.16l-0.08 0.56 -0.36 0.46c-2.22,2.95 -4.65,5.88 -7.07,8.83 -10.28,12.46 -19.98,24.22 -15.99,37.62 2.14,7.19 6.39,14.12 10.49,20.82l0.49 0.79 -4.89 26.99c-6.43,43.88 -14.81,88.22 -22.94,131.11 -4.64,24.48 -9.43,49.79 -13.75,74.49 -2.51,13.67 -4.96,27.37 -7.39,41.06l-7.3 41.06c-0.14,0.79 0.11,1.61 0.65,2.2 0.48,0.49 1.15,0.78 1.84,0.78 31.82,-3.93 63.36,-7.72 94.9,-11.44 1.09,-0.13 1.99,-0.98 2.19,-2.07 1.94,-11.27 3.87,-22.52 5.85,-33.76 4.11,-13.86 5.59,-28.03 7.04,-41.71 1.96,-18.71 4.02,-38.06 12.7,-55.46l0.86 -1.7 1.86 0.46c10.03,2.51 20.33,-0.5 30.29,-3.43 8.93,-2.59 17.39,-5.06 25.65,-3.9 19.76,-2.62 39.77,-4.11 58.59,-5.39l2.32 -0.17 3.16 33.54c2.95,31.18 5.89,62.24 8.86,93.18 0.06,0.65 0.39,1.28 0.91,1.7 0.52,0.42 1.22,0.64 1.84,0.56 17.17,-1.82 34.41,-3.63 51.69,-5.4 9.8,-4.3 20.14,-4.61 31.09,-4.95 7.64,-0.22 15.52,-0.46 23.32,-2.17 -0.22,-22.47 -4.11,-44.6 -8.23,-68.01 -3.68,-20.98 -7.5,-42.68 -8.42,-64.69z"/>
  <path class="fil1" d="M1630.19 999.47c-31.56,-4.61 -63.65,-4.38 -94.67,-4.16 -29.01,0.2 -58.99,0.43 -88.24,-3.36 -14.97,-0.45 -29.94,-0.94 -44.77,-1.46 -12.84,-0.19 -30.83,-0.2 -44.67,-0.2 -0.09,30.07 -1.85,59.72 -3.54,88.42 -2.29,38.93 -4.68,79.18 -2.87,120.56l-0.75 38.96 -0.34 0.56c-3.69,5.89 -7.65,11.77 -12.17,18.02 -7.91,10.94 -9.46,16.55 -2.36,26.22 4.26,5.81 9.29,11.71 13.21,16.2l0.6 0.7 -0.02 0.9c-0.5,27.76 -0.84,62.87 -1.2,100.06 -0.52,54.62 -1.05,111.06 -2.19,151.49 26.46,-0.53 246.16,-4.23 279.08,-2.22 0.02,-4.16 0.04,-11.49 0.07,-19.46 0.05,-12.12 0.11,-25.7 0.16,-31.88 0.19,-12.67 0.2,-35.42 0.2,-49.28 -20.82,-0.08 -41.91,3.54 -62.33,2.4 -21.12,-1.17 -42.98,-2.4 -64.45,-2.4l-45.43 0.01 0 -2.39c-0.02,-37.36 -0.02,-62.03 0.59,-100.73 0.7,-15.2 2.09,-27.75 4.23,-38.49l0.38 -1.91 134.42 0c7.22,-15.6 4.42,-31.07 1.47,-47.43 -1.99,-11.06 -4.05,-22.46 -2.72,-33.91 -46.74,0 -89.05,0 -135.87,0.03l-2.62 0 0.25 -2.62c0.96,-10.65 1.38,-21.98 1.28,-35.67 -0.05,-8.44 -0.28,-16.89 -0.53,-25.34l-0.29 -10.52c-0.14,-5.35 -0.48,-10.71 -0.82,-16.09 -1.2,-18.46 -2.43,-37.56 5.19,-56.6l0.55 -1.37 1.46 -0.11c38.25,-3.19 73.6,-2.18 111.03,-1.09 17.79,0.52 36.2,1.05 54.88,1.08 4.74,-15.28 4.03,-29.11 3.26,-43.71 -0.54,-10.6 -1.12,-21.54 0.54,-33.22z"/>
  <path class="fil1" d="M2439.07 995.07c-50.76,0 -98.89,0.04 -152.73,2.72l-0.08 0c-10.15,0.19 -20.46,0.45 -30.8,0.74l-7.15 0.19c-38.2,0.98 -76.74,1.8 -114.56,2.48 -1.32,0.03 -2.37,1.11 -2.36,2.42 0,0.01 0.2,19.22 0.54,38.37 0.87,12.07 0.93,25.79 0.93,39.2l105.24 0 0 2.39c0,47.95 0,102.3 0.41,152.36l0 0.43 -0.14 0.38c-3.13,8.74 -6.55,15.5 -10.83,21.26 -1.5,2.01 -3.36,3.78 -5.13,5.5 -2.8,2.66 -5.4,5.19 -6.58,8.32 -3.13,8.32 0.74,16.29 4.54,21.5 2.67,3.7 5.78,7.14 8.77,10.47 3.28,3.64 6.67,7.41 9.63,11.61l0.42 0.6 0.01 0.74 3.15 227.46c0.02,1.3 1.04,2.33 2.33,2.36 33.61,0.83 67.56,1.76 100.86,2.8l0 0c0.7,0 1.31,-0.24 1.74,-0.68 0.46,-0.45 0.74,-1.09 0.72,-1.76l-1.89 -107.43c-0.16,-7.63 -0.33,-15.52 -0.55,-23.56 -0.56,-19.9 -1.28,-39.67 -1.99,-59.36 -0.45,-12.29 -0.89,-24.56 -1.3,-36.81l-0.03 -0.76 0.41 -0.63c5.7,-8.72 10.94,-19.07 15.58,-30.77 3.06,-7.72 2.76,-11.67 -1.43,-18.32 -0.2,-0.31 -0.83,-1.13 -1.76,-2.33 -2.93,-3.83 -9.05,-11.8 -14,-19.89l-0.35 -0.56 0 -0.67c-0.12,-23.48 0.19,-44.35 0.96,-63.83 -0.3,-19.42 -0.6,-37.1 -0.86,-51.97l-0.89 -50.64 2.22 -0.21c31.55,-2.72 68.84,-2.78 102.02,-2.78 2.32,-16.22 0.09,-32.86 -2.05,-48.96 -1.41,-10.59 -2.87,-21.52 -3.06,-32.37z"/>
  <path class="fil1" d="M3119.24 1219.99c-8.79,9.21 -22.23,13.74 -41.11,13.86l-36.6 0.31 -6.93 -187.74 2.33 -0.12c14.34,-0.83 28.69,-1.7 43.04,-2.54 14.83,-0.93 25.83,2.09 33.69,9.21 10.23,9.24 15.7,26.11 16.71,51.51l2.47 63.38c0.94,24.51 -3.5,41.56 -13.61,52.12zm133.01 297.75l-4.16 -101.74c-3,-73.53 -24.11,-117.66 -66.4,-138.83l-3.98 -1.99 3.86 -2.22c19.77,-11.31 33.78,-27.44 42.85,-49.27 4.5,-10.83 7.72,-23.17 9.59,-36.65 -1,-12.56 -1.49,-25.12 -1.83,-35.76 0.41,-24.66 -0.22,-44.36 -1.93,-62.15 -1.02,-10.56 -2.47,-20.73 -4.32,-30.21 -1.65,-23.47 -12.27,-42.4 -23.51,-62.43 -4,-7.12 -8.13,-14.48 -11.93,-22.2 -11.74,-10.86 -27.1,-18.57 -45.67,-22.94 -18.57,-4.38 -40.76,-5.44 -65.94,-3.18 -49.43,4.17 -99.53,8.15 -148.96,11.79 -1.28,0.09 -2.25,1.18 -2.21,2.47l5.49 158.44c2.54,27 4.43,55.41 5.8,86.74 0.3,7.45 0.54,14.9 0.79,22.35l0.17 5.51 -0.26 1.05c-3.45,11.79 -6.75,20.28 -11.83,30.25 -5.58,10.98 -4.5,17.69 4.56,28.64 4.17,5.05 7.4,9.78 9.89,14.49l0.27 1c0.44,8.83 0.92,17.63 1.39,26.44 0.51,9.39 1.01,18.79 1.49,28.15 0.72,14.5 1.21,26.58 1.54,38.03 -0.76,22.8 -0.83,49.24 -0.87,70.48l-0.01 4.9c0.22,19.02 0.76,36.41 1.22,49.41l1.57 45.27c0.04,1.23 0.99,2.21 2.22,2.3 33.65,2.44 67.51,4.99 100.64,7.61 0.74,0.07 1.35,-0.19 1.84,-0.65 0.49,-0.48 0.76,-1.15 0.74,-1.83l-1.04 -28.03c-0.64,-24.93 -2.25,-50.84 -3.78,-75.92 -2.98,-48.06 -6.03,-97.71 -2.88,-144.85l0.13 -2.22 2.25 0c4.79,0 9.58,-0.2 14.33,-0.39 18.72,-0.75 38.13,-1.54 54.08,10.43 25.2,18.9 24.5,47.47 23.82,75.13 -0.39,15.97 -0.76,31.03 3.57,44.15l0.13 0.65c1.13,25.27 2.16,50.53 2.16,50.53 0.94,24.35 2.33,40.72 4.51,53.02 1.93,10.82 4.24,17.48 7.17,25.56 30.96,12.06 63.86,13.44 98.67,14.91 4.46,0.17 8.95,0.37 13.45,0.59 -0.07,-0.03 0.29,-0.24 0.67,-0.7 -0.23,-12.01 -4.8,-24.06 -9.63,-36.78 -6.04,-15.91 -12.28,-32.39 -9.69,-49.33z"/>
  <path class="fil1" d="M3465.24 1521.33l-1.72 0 -0.54 -1.63c-4.83,-14.48 -4.91,-24.31 -4.5,-38.81l0.13 -3.67c0.41,-11.52 0.78,-22.39 -1.96,-31.77l-0.1 -0.65c-0.02,-8.12 0.03,-16.21 0.07,-24.26l0.07 -13.87c0.04,-11.27 0,-24.52 -0.48,-37.32 -1.08,-29.53 -2.04,-51.37 -2.04,-51.37l-0.11 -2.54 35.43 0.48c32.38,-0.3 69.49,-0.3 102.56,-0.3 0.04,-8.84 0.31,-17.75 0.58,-26.41 0.87,-27.45 1.75,-55.83 -4.85,-83.64 -18.35,0.11 -36.23,1.59 -53.52,3.03 -27.94,2.33 -54.35,4.53 -82.84,1.44l-2.03 -0.22 -2.22 -50.44c-3.44,-47.02 -3.44,-95.69 -3.44,-142.78l0 -2.39 2.41 0c53.93,0 114.41,-5.17 163.04,-9.33 1.29,-0.1 2.24,-1.2 2.17,-2.49l-4.91 -106.1c-0.03,-0.64 -0.34,-1.27 -0.85,-1.7 -0.52,-0.44 -1.17,-0.63 -1.85,-0.55 -22.26,2.72 -44.62,5.38 -67.01,8 -11.19,1.31 -22.39,2.6 -33.59,3.86 -9.94,1.09 -19.42,2.39 -28.58,3.65 -16.87,2.32 -32.78,4.51 -50.01,5.16 -16.97,4.08 -33.28,5.15 -49.07,6.15l-2.49 0.18c-16.84,1.09 -30.89,2.3 -44.05,6.4 0,33.05 0.16,70.26 9.47,102.86l0.09 0.65c0,19.13 0,42.93 2.27,63.08 0.16,11.01 0.35,21.83 0.72,32.75 0.37,11.86 0.9,22.64 1.61,32.95 0.36,8.87 0.74,17.72 1.11,26.65l1.77 41.49c-1.15,7.69 -3.09,17.06 -8.1,25.72 -1.94,3.35 -4.11,6.34 -6.21,9.22 -6.44,8.83 -11.52,15.8 -5.61,27.63 1.94,3.92 4.65,7.43 7.5,11.15 2.45,3.2 5.01,6.52 7.06,10.14 6.41,11.33 8.46,22.66 10.48,36.3l0.75 17.22c0.82,18.95 1.61,37.48 2.3,55.37 0.86,11.24 1.52,22.35 2,33.9 0.34,12.7 0.61,25.27 0.87,37.76 0.87,41.43 1.69,80.59 5.22,120.33 23.78,4.6 46.04,5.66 69.58,6.8 10.72,0.54 21.8,1.06 32.99,1.95 13.66,1.09 25.38,2.58 36.88,4.62 22.54,0.28 46.33,4.13 69.33,7.83 22.5,3.63 45.76,7.38 67.54,7.65 0.3,0 0.57,-0.07 0.86,-0.17 0.46,-36.32 0.46,-73.94 0.46,-110.41l-41.18 -0.06c-42.79,-9.51 -90.96,-9.51 -133.43,-9.51z"/>
  <path class="fil1" d="M2051.3 1232.06l-0.23 -0.51 0 -0.55c0.44,-70.17 0.11,-132.86 -0.98,-191.64 -0.93,-24.14 -1.16,-39.11 -1.16,-39.27 0,-0.65 -0.28,-1.28 -0.72,-1.71 -0.45,-0.44 -1.07,-0.72 -1.67,-0.69 -29.42,0.34 -58.8,0.59 -88.19,0.75 -1.31,0 -2.37,1.08 -2.37,2.4l0.25 60.53c-0.44,47.24 -0.3,84.06 0.46,123.16l0.12 34.47c-0.45,12.47 -0.71,24.96 -0.85,39.41 -0.11,11.71 -0.13,23.57 -0.13,36.31l0 4.11 -4.74 0.46c-2.33,-11.67 -5.76,-22.02 -9.4,-32.96 -3.67,-11.07 -7.36,-22.19 -9.85,-34.77 -2.8,-8.87 -5.65,-17.89 -8.49,-26.84l-1.44 -4.56c-9.93,-31.34 -19.66,-62.08 -29.21,-92.39l-33.7 -107.47c-0.31,-1.01 -1.23,-1.67 -2.28,-1.68l-31.07 -0.08c-33.96,1.28 -62.26,1.31 -94.66,1.31 0,62.76 -0.02,127.59 -1.27,188.98 -0.14,7.13 -0.23,14.38 -0.34,21.69l-0.23 16.81 -0.29 0.52c-2.47,4.5 -5.03,8.91 -7.61,13.34 -3.38,5.83 -6.87,11.83 -10.14,18.07 -3.34,6.37 -5.5,10.5 -2.85,16.48 1.76,3.96 5.24,7.02 8.91,10.25 3.49,3.08 7.1,6.24 9.46,10.46 0.8,1.44 1.42,2.87 2.01,4.28l0.17 0.93 -1.05 238.87c0,0.64 0.24,1.27 0.7,1.7 0.46,0.48 1.01,0.74 1.48,0.72 30.5,-0.33 60.76,-0.54 91.04,-0.69 1.31,0 2.37,-1.07 2.37,-2.37l0.15 -119.22c-1.63,-50.91 -1.57,-103.66 0.18,-148.47l0.06 -42.22c0.04,-33.91 0.11,-56.46 0.11,-56.46l0.05 -15.5 4.63 14.78c4.44,14.18 8.94,28.46 13.48,42.85 3.97,12.59 7.98,25.26 12.01,38.08 6.8,22.8 13.46,44.89 20.19,66.71 3.37,10.93 6.76,21.78 10.2,32.61 6.13,20.04 13.4,40.95 20.46,61.17 9.05,25.99 18.42,52.87 25.85,79.18 4.5,14.06 9.05,28.18 13.66,42.44 0.33,0.98 1.23,1.65 2.26,1.67 33.98,0.13 68.85,0.41 103.65,0.79 0.65,0 1.27,-0.25 1.7,-0.69 0.46,-0.46 0.72,-1.09 0.72,-1.7 0,0 -0.17,-21.45 -0.49,-56.35 -0.41,-34.02 -0.59,-69.17 -0.75,-103.16 -0.11,-22.75 -0.22,-45.62 -0.4,-68.57l-0.06 -12.4 0.57 -0.69c4.81,-5.67 9.31,-9.97 14.15,-13.51 4.37,-3.18 7.12,-7.7 7.56,-12.38 0.4,-4.24 -1.11,-8.3 -4.33,-11.72 -7.59,-8.07 -13.54,-16.51 -17.66,-25.11z"/>
  <path class="fil1" d="M722.76 1327.13c-0.64,14.27 -1.63,28.79 -2.56,42.85 -1.7,24.99 -3.44,50.8 -3.44,77.19 0,6.89 -4.25,13.45 -8.01,19.27 -1.91,2.94 -3.7,5.73 -4.64,8.12l-0.38 0.64c-8.34,10.1 -20.67,15.5 -37.69,16.52 -17.11,1.02 -34.2,2.04 -51.31,3.1l-2.63 0.16 9.07 -244.04c-0.03,-11.59 0.41,-24.4 1.39,-40.26 0.53,-8.72 1.16,-17.46 1.8,-26.24 0.34,-4.9 0.7,-9.8 1.04,-14.69 0.09,-6 0.16,-11.88 0.25,-17.63 0.26,-20.98 0.52,-40.81 1.68,-61.96 1.17,-27.99 1.95,-45.63 1.95,-45.63l0.11 -2.32 2.32 0.03c17,0.29 34,0.85 50.57,1.68l0.64 0.03 0.54 0.36c4.94,3.25 10.93,5.22 17.26,7.35 7.55,2.5 15.32,5.11 22.64,10.07l0.68 0.47 0.25 0.81c2.84,9.11 5.16,18.49 6.92,27.87 0.12,7.06 0.23,13.66 0.33,20.26 0.8,52.41 1.57,101.93 -8.8,156.69 1.04,17.71 1.05,36.57 0.03,59.28zm112.38 -75.39c-2.72,-4.96 -4.93,-9.84 -6.78,-14.9l-0.15 -0.44 0.02 -0.46c0.29,-8.39 0.54,-16.69 0.78,-24.8 7.75,-48.93 6.9,-100.78 -2.32,-146.31 -2.83,-12.32 -6.59,-24.11 -11.15,-34.98 -4.89,-11.69 -10.91,-22.76 -17.86,-32.92 -7.83,-8.89 -17.37,-16.87 -28.13,-23.48 -21.8,-13.41 -49.33,-21.68 -81.8,-24.53 -12.93,-1.09 -25.91,-2.21 -38.91,-3.35 -9.57,-0.75 -19.34,-1.59 -29.18,-2.46 -30.06,-2.6 -61.13,-5.29 -89.47,-5.44 -0.09,53.73 -3.18,103.52 -6.43,156.21 -0.73,11.93 -1.47,23.92 -2.2,36.01l-5.17 131.58 -0.31 0.55c-4.84,8.12 -9.66,14.75 -12.12,17.97 -7.53,9.95 -13.5,17.82 -9.4,29.65 2.54,7.34 8.04,14.06 13.35,20.55 1.71,2.07 3.39,4.12 4.98,6.21l0.53 0.68 -2.5 63.59c-0.7,18.01 -1.38,35.38 -2.09,51.84l-0.13 0.73c-5.69,15.45 -4.33,30.81 -2.88,47.07 1.5,17.04 3.07,34.65 -4.2,52.26 1.84,6.25 1.31,13.17 0.8,19.87 -0.67,8.69 -1.31,16.94 3.03,23.33 18.41,-5.94 38.81,-4.27 58.56,-2.69 20.14,1.63 40.96,3.31 60.75,-2.82l0.5 -0.1c13.28,-1.11 26.51,-2.21 39.69,-3.3 49.7,-4.26 88.33,-20.51 114.86,-48.29 8.75,-9.16 16.25,-19.69 22.31,-31.33 27.89,-61.02 26.7,-125.36 25.46,-193.46l-0.08 -4.83 0.36 -0.59c6.26,-10.41 11.32,-21.73 14.22,-31.87 2.47,-8.65 0.11,-12.67 -4.16,-19.94 -0.87,-1.48 -1.8,-3.06 -2.77,-4.8z"/>
  <path class="fil1" d="M1221.36 983.2c-15.12,-0.71 -30.25,-1.43 -45.4,-2.19 -1.16,-0.08 -2.24,0.77 -2.47,1.94 0,0 -2.76,14.9 -7.09,38.77 -5.3,39.8 -13.67,80.34 -21.79,119.53 -6.51,31.48 -13.25,64.02 -18.34,96.06 -1.83,9.72 -3.56,19.07 -5.27,28.23l-0.85 4.57c-0.74,28.2 -8.12,54.58 -15.26,80.09 -7.37,26.34 -14.98,53.56 -14.98,82.61l-4.75 0.43c-4.16,-22.85 -5.64,-45.98 -7.07,-68.32 -1.86,-28.98 -3.77,-58.96 -11.65,-87.65 -1.58,-12.06 -3.07,-23.47 -4.56,-34.84l-0.52 -3.94c-1.65,-12.56 -3.3,-25.15 -4.89,-37.89 -1.78,-16.5 -4.19,-32.13 -6.52,-47.25 -4.07,-26.3 -10.75,-79.98 -11.35,-84.09 -12.29,7.12 -63.27,25.78 -98.45,48.78 1.38,11.38 3.02,22.65 5.05,30.77 1.22,4.79 2.57,10.24 4.15,17.61 1.89,17.48 4.14,34.46 6.26,50.37l1.53 11.24 -0.18 0.53c-3.75,11.09 -9.77,21.53 -15.59,31.6 -7.54,13.07 -8.25,23.1 -2.36,33.56 4.07,7.22 10.02,13.27 16.32,19.71 5.62,5.73 11.45,11.67 15.85,18.55l0.69 1.47 2.59 16.76c6.37,41.17 12.96,83.75 16.88,125.82 1.96,14.06 3.97,28.34 5.98,42.6 1,7.13 2.02,16.76 3.02,26.05 1,9.42 2.04,19.13 3.04,26.24 0.16,1.19 1.17,2.07 2.36,2.07 9.58,-0.57 28.56,-0.8 50.53,-1.05 37.21,-0.41 83.18,-0.93 97.06,-3.44 1.18,-5.59 3.96,-17.74 6.89,-30.54 3.72,-16.28 7.59,-33.12 8.77,-39.33 5.2,-27.06 10.18,-53.53 10.18,-53.53 2.85,-14.97 5.81,-30.14 8.9,-45.72 3.08,-15.57 6.28,-31.44 9.5,-47.35 1.67,-8.16 3.29,-16.25 4.88,-24.26l0.2 -0.57c3.62,-7.44 9.47,-14.4 15.14,-21.12 8.74,-10.41 17.79,-21.17 18.13,-33.33 0.17,-6.05 -3.22,-10.92 -6.8,-16.09 -0.94,-1.36 -1.89,-2.73 -2.78,-4.13 -2.46,-3.85 -4.59,-7.9 -6.31,-12.01l-0.28 -0.67 5.03 -25.79c2.19,-11.2 4.39,-22.59 6.65,-34.06 2.26,-11.48 4.53,-23.02 6.85,-34.5 3.32,-15.04 6.11,-30.96 8.81,-46.35 5.14,-29.28 10.46,-59.57 19.81,-87.72 0.03,-2.76 0.42,-5.48 0.79,-8.12 0.89,-6.25 1.73,-12.17 -2.1,-18.11 -14.79,-0.63 -29.53,-1.3 -44.26,-1.99z"/>
  <path class="fil1" d="M2843.67 1246.4c-5.37,-7.08 -10.45,-13.75 -14.7,-20.63l-0.31 -0.5 -0.05 -0.59c-1.03,-15.32 -2.07,-33.31 -2.09,-50.63 -0.08,-3.67 -0.19,-10.96 -0.3,-19.42 -0.19,-14.96 -0.43,-33.43 -0.79,-42.21l-98.07 -59.44c-3.61,46.79 -1.19,102.86 1.17,157.15 1.3,29.92 2.52,58.2 2.61,83.06 0.39,15.47 0.82,30.06 1.22,43.69l0.06 1.91c-0.49,14.89 0.67,30.13 1.8,44.85 2.39,31.22 4.87,63.5 -8.33,93.22l-0.29 0.64 -0.57 0.37c-14.95,9.97 -34.78,9.97 -53.95,9.97l-0.77 -0.12c-11.26,-3.75 -16.99,-10.31 -23.04,-17.29 -2.05,-2.36 -4.18,-4.8 -6.59,-7.2l-0.46 -0.48 -0.17 -0.63c-7.48,-29.91 -5.95,-58.93 -4.48,-86.99 1.38,-26.32 2.8,-53.52 -3.14,-81.58l-1.34 -48.82c-2.57,-21.79 -1.8,-43.49 -1.04,-64.46 0.85,-23.58 1.73,-47.96 -2.03,-73.7 -0.76,-13.74 -1.28,-24.76 -1.64,-34.96 -0.45,-12.76 -0.67,-24.34 -0.65,-35.41 -0.83,-27.37 -1.33,-44.93 -1.33,-44.93 -0.02,-0.65 -0.29,-1.27 -0.77,-1.7 -0.49,-0.45 -1.09,-0.69 -1.73,-0.64 -7.67,0.31 -15.67,0.57 -23.87,0.81 -25.95,0.81 -52.76,1.63 -77.53,5 1.41,21.69 2.48,44.52 3.25,69.71 0.37,12.01 0.65,24.04 0.87,36.1 0.23,12.07 0.4,24.17 0.53,36.31 0.13,12.12 0.25,24.3 0.35,36.53l0.63 52.23 -0.23 0.5c-1.84,4.02 -3.96,7.76 -6.19,11.72 -2.37,4.16 -4.8,8.46 -7.08,13.41 -3.4,7.37 -3.81,13.39 -1.33,19.46 2.57,6.32 8.05,11.64 13.37,16.79l2.95 2.89 2.54 108.3c-0.25,49.64 4.71,100.17 42.25,134.01 8.81,8.57 18.99,15.96 30.33,22.02 23.02,12.31 51.25,19.51 83.92,21.41 49.2,2.97 87.35,-8.03 112.56,-32.55 25.12,-24.44 37.04,-61.61 35.48,-110.5l-3.13 -97.94c0.8,-8.88 1.17,-18 1.22,-28.22l0 -0.72 0.41 -0.6c6.23,-9.21 13.17,-20.13 17.26,-31.28 3.5,-9.54 2.63,-15.46 -3.39,-23.47l-3.4 -4.48z"/>
  <polygon class="fil1" points="2055.59,690.69 1999.94,662.57 1972.89,913.19 2055.59,912.7 2055.59,852.43 "/>
  <path class="fil1" d="M1717.39 623.98l36.67 -58.42 51.36 0 29.37 58.42 -117.4 0zm63.57 -88.64l47.43 0 27.1 53.94 -21.91 0 -23.49 -46.75 -33.65 0 4.52 -7.19zm24.41 -26.99l47.43 0 27.1 53.94 -21.91 0 -23.48 -46.74 -33.63 0 4.5 -7.2zm-12.48 282.21l18.82 -33.28 12.89 72.28 23.56 -48.58 -8.25 -73.02 13.44 -23.78 8.85 67.88 18.16 -37.43 -4.34 -61.97 8.44 -14.96 4.52 59.17 17.93 -36.96 -3.52 -50.19 8.45 -14.94 3.63 47.5 23.09 -47.62 -6.95 -47.16 -32.91 -4.16 -42.22 -66.43 -39.04 -23.7 -93.92 65.58 -50.27 94.57 -46.68 2.14 8.41 -33.4 17.9 -12.35 -20.51 -98.11 -64.81 -49.8 -23.87 -21.09 0 63.27 -66.81 -122.07 0 126.57 47.69 63.28 62.05 -64.95 15.89 79 -51.47 96.61 -258.44 209.96 -56.85 65.17 111.82 -0.79 58.44 -36.24 -2.22 -49.23 206.67 -168.75 189.31 0 -48.82 75.77 -140.16 1.57 -28.22 28.13 147.12 0 -55.31 77.28 23.52 14.13 2.76 55.3 82.84 -0.49 21.18 -43.67 -11.79 -80.04z"/>
  <path class="fil1" d="M2076.56 353.72l-51.57 -108.39 49.8 52.39 17.97 -5.74 76.1 253.21 12.33 60.14 -57.96 -62.83 -46.67 -188.77zm161.85 351.05l-98.39 -75.99 98.39 14.4 0 -29.83 -31.8 -35.15 -65.41 -286.41 -34.75 -15.36 -31.8 -65.64 -31.8 -46.87 -50.85 90.82 -31.79 -56.25 -7.94 140.63 0 42.17 23.83 -35.15 27.25 43.39 12.5 19.89 15.89 -49.22 31.8 147.67 -77.31 54.7 96.18 46.27 13.43 72.85 56.79 -2.3 2.01 7.04 -0.75 -4.32 30.37 56.2 11.48 36.5 -34.26 -48.83 -61.66 2.1 8.94 51.76 67.07 -1.95 1.98 7.97 23.39 41.04 14.31 45.6 -30.91 -47.63 -65.54 -0.7 14.53 68.46 122.53 0 -35.41 -119.6 30.62 0 59.67 138.17 94.21 -0.54 -42.43 -41.7 -124.37 -164.22z"/>
  <polygon class="fil1" points="2315.41,735.13 2413.31,910.63 2501.06,910.13 2394.2,778.19 "/>
  <polygon class="fil1" points="1538.93,838.36 1441.55,916.24 1536.38,915.7 1538.93,908.67 "/>
  <path class="fil2" d="M2059.26 33.79l-66.85 0c-14.31,0 -28.2,5.24 -39.44,14.87l0 0 -164.16 140.64c-5.24,4.49 -9.8,9.85 -13.52,15.88l0 0 -94.63 147.61 -52.77 8.65 -108.87 -108.29c-4.86,-4.34 -10.28,-7.86 -16.07,-10.48l0 0 -31.28 -14.06c-23.6,-10.63 -45.97,38.16 -64.22,57.62l0 0c-27.17,28.96 -49.82,49.75 -69.81,68.09l0 0c-37.32,34.26 -69.57,63.83 -90.8,114.74l0 0c-34.33,82.35 -44.2,181.34 -47,226.15l0 0c-37.14,49.49 -65.97,65.39 -71.57,68.13l0 0c-18.75,5.17 -30.36,18.33 -38.33,37.74l0 0 -55.99 136.49 -31.83 34.27 -70.21 -2.99 0 58.78 -42.52 63.29 217.68 -135.26 20.69 -100.78 38.57 -92.5c0,0 52.67,-17.4 116.26,-108.82l0 0c0,0 2.36,-126.69 43.11,-222.81l0 0c24.45,-57.69 69.17,-77.57 149.63,-161.96l0 0 31.8 14.07 123.7 108.59 79.5 -28.14 98.85 -157.8 166.92 -140.63 87.44 0 63.58 147.67 70.56 52.72 32.76 10.55 10.65 33.54 112.07 367.26 79.33 48.15 109.58 156.52 28.72 33.14 78.31 0.21 211.04 167.3 -28.69 -65.46 0 -54.66 -73.89 4.79 -94.98 -77.21 -155.82 -162.93c-3.75,-3.91 -7.93,-7.28 -12.44,-10.06l0 0 -102.04 -62.94 -107.32 -332.13c-0.08,-0.24 -10.71,-34.32 -10.71,-34.32l0 0c-6.62,-21.23 -22.28,-37.67 -42.03,-44.13l0 0 -22.43 -7.34 -46.87 -35.61 -45.74 -125.81c-10.41,-24.59 -33.02,-40.35 -57.92,-40.35z"/>
  <polygon class="fil3" points="541.17,1963.06 541.17,1755.34 501.37,1755.34 501.37,1709.96 639.97,1709.96 639.97,1755.34 600.17,1755.34 600.17,1963.06 "/>
  <path id="1" class="fil3" d="M837.27 1903.42l0 -133.47c0,-7.04 -1.05,-11.76 -3.14,-14.14 -2.09,-2.39 -6.22,-3.61 -12.45,-3.61 -6.34,0 -10.59,1.22 -12.68,3.61 -2.09,2.39 -3.15,7.1 -3.15,14.14l0 133.47c0,7.16 1.05,11.93 3.15,14.26 2.09,2.33 6.34,3.49 12.68,3.49 6.23,0 10.36,-1.16 12.45,-3.49 2.09,-2.33 3.14,-7.1 3.14,-14.26zm60.39 -8.32c0,17.39 -0.99,29.79 -2.91,37.24 -1.92,7.45 -5.3,13.73 -10.06,18.85 -5.12,5.59 -11.52,9.48 -19.26,11.7 -7.68,2.21 -22.28,3.31 -43.81,3.31 -21.59,0 -36.25,-1.11 -43.93,-3.31 -7.74,-2.21 -14.2,-6.11 -19.32,-11.7 -4.77,-5.24 -8.15,-11.69 -10.18,-19.37 -2.04,-7.68 -3.08,-19.9 -3.08,-36.71l0 -117.01c0,-16.81 0.99,-29.04 2.96,-36.66 1.98,-7.62 5.47,-14.02 10.3,-19.26 5.24,-5.7 12.16,-9.66 20.71,-11.93 8.61,-2.27 22.81,-3.43 42.54,-3.43 19.67,0 33.74,1.16 42.18,3.43 8.5,2.27 15.36,6.22 20.6,11.93 4.83,5.24 8.32,11.64 10.3,19.26 1.98,7.62 2.96,19.84 2.96,36.66l0 117.01z"/>
  <path id="2" class="fil3" d="M1017.7 1709.96l59 0 0 192.76c0,7.04 1.05,11.75 3.08,14.14 2.04,2.39 6.23,3.61 12.63,3.61 6.29,0 10.48,-1.22 12.57,-3.61 2.09,-2.39 3.14,-7.1 3.14,-14.14l0 -192.76 56.56 0 0 171.47c0,19.78 -1.05,34.27 -3.09,43.4 -2.04,9.14 -5.41,16.93 -10.18,23.28 -5.12,6.63 -12.1,11.29 -20.89,14.02 -8.78,2.73 -21.99,4.07 -39.56,4.07 -17.98,0 -31.24,-1.34 -39.85,-4.07 -8.67,-2.74 -15.48,-7.39 -20.48,-14.02 -4.65,-6.11 -7.97,-13.67 -9.95,-22.69 -1.98,-8.96 -2.96,-23.62 -2.96,-43.98l0 -171.47z"/>
  <path id="3" class="fil3" d="M1361.27 1754.64l-14.37 0 0 78.2 14.37 0c7.62,0 12.74,-1.28 15.3,-3.84 2.56,-2.56 3.84,-7.27 3.84,-14.2l0 -41.95c0,-7.04 -1.28,-11.81 -3.84,-14.37 -2.56,-2.56 -7.68,-3.84 -15.3,-3.84zm18.44 144.47c0,-8.73 -1.63,-14.72 -4.83,-18.04 -3.26,-3.32 -9.37,-4.94 -18.21,-4.94l-9.78 0 0 86.93 -59 0 0 -253.1 61.38 0c36.43,0 60.45,4.59 72.2,13.79 11.7,9.25 17.57,26.3 17.57,51.15l0 28.98c0,14.66 -3.2,25.83 -9.54,33.51 -6.4,7.62 -16.76,12.8 -31.19,15.42 13.38,1.92 23.33,6.46 29.73,13.62 6.4,7.15 9.66,17.28 9.66,30.31l0 66.33 -58.01 0 0 -63.94z"/>
  <path id="4" class="fil3" d="M1611.11 1878.57l0 24.56c0,6.57 1.34,11.23 3.96,13.96 2.62,2.73 7.04,4.07 13.32,4.07 6.81,0 11.41,-1.28 13.79,-3.9 2.39,-2.62 3.61,-7.56 3.61,-14.83l0 -17.92c0,-5.41 -0.35,-9.48 -1.05,-12.1 -0.64,-2.62 -1.8,-4.94 -3.37,-6.98 -3.9,-4.65 -12.8,-8.55 -26.76,-11.58 -6.4,-1.39 -11.35,-2.56 -14.84,-3.61 -16.41,-4.65 -27.64,-11.17 -33.8,-19.55 -6.11,-8.38 -9.19,-21.53 -9.19,-39.51l0 -23.39c0,-22.69 4.42,-38.52 13.2,-47.54 8.79,-8.96 24.03,-13.44 45.73,-13.44l17.46 0c13.61,0 24.79,1.16 33.57,3.49 8.73,2.33 15.59,6.05 20.6,11.17 4.02,3.96 6.75,9.02 8.38,15.19 1.57,6.11 2.39,15.94 2.39,29.44l0 19.61 -52.31 0 0 -15.83c0,-7.97 -1.05,-13.27 -3.14,-15.89 -2.15,-2.62 -6.4,-3.9 -12.92,-3.9 -6.28,0 -10.53,1.22 -12.74,3.67 -2.21,2.44 -3.31,6.98 -3.31,13.73l0 16.35c0,12.39 10.59,21.24 31.77,26.59 5.99,1.63 10.76,2.91 14.31,3.96 16.23,4.54 27.41,10.94 33.46,19.08 6.11,8.2 9.13,21.18 9.13,38.93l0 34.09c0,21.18 -5,36.37 -15.07,45.73 -10.07,9.31 -26.47,13.96 -49.17,13.96l-15.71 0c-25.02,0 -42.19,-4.25 -51.55,-12.8 -9.37,-8.5 -14.08,-24.26 -14.08,-47.25l0 -27.58 54.34 0z"/>
  <path id="5" class="fil3" d="M2179.57 1825.51l0 69.59c0,16.81 -0.99,29.09 -2.97,36.71 -1.98,7.68 -5.3,14.14 -10.01,19.37 -4.94,5.59 -11.23,9.48 -18.8,11.7 -7.56,2.21 -21.87,3.31 -42.88,3.31 -21.59,0 -36.25,-1.11 -43.99,-3.31 -7.68,-2.21 -14.14,-6.11 -19.26,-11.7 -4.77,-5.24 -8.15,-11.69 -10.18,-19.37 -2.04,-7.62 -3.08,-19.9 -3.08,-36.71l0 -116.95c0,-16.81 0.99,-29.09 2.96,-36.71 1.98,-7.62 5.47,-14.02 10.3,-19.26 5.24,-5.7 12.1,-9.66 20.66,-11.93 8.49,-2.27 22.69,-3.43 42.59,-3.43 18.62,0 32.23,1.16 40.84,3.49 8.56,2.33 15.42,6.29 20.54,11.87 4.65,5.12 7.97,11.46 9.95,19.09 1.98,7.62 2.97,19.96 2.97,36.89l0 13.15 -56.2 0 0 -21.35c0,-7.04 -1.17,-11.76 -3.49,-14.14 -2.33,-2.39 -7.1,-3.61 -14.2,-3.61 -7.27,0 -12.1,1.22 -14.43,3.61 -2.33,2.39 -3.49,7.1 -3.49,14.14l0 133.47c0,7.04 1.17,11.75 3.49,14.14 2.33,2.39 7.16,3.61 14.43,3.61 7.1,0 11.87,-1.22 14.2,-3.61 2.33,-2.39 3.49,-7.1 3.49,-14.14l0 -32.52 -16.7 0 0 -45.39 73.26 0z"/>
  <path id="6" class="fil3" d="M2374.07 1754.64l-14.37 0 0 78.2 14.37 0c7.62,0 12.74,-1.28 15.3,-3.84 2.56,-2.56 3.84,-7.27 3.84,-14.2l0 -41.95c0,-7.04 -1.28,-11.81 -3.84,-14.37 -2.56,-2.56 -7.68,-3.84 -15.3,-3.84zm18.44 144.47c0,-8.73 -1.63,-14.72 -4.83,-18.04 -3.26,-3.32 -9.37,-4.94 -18.21,-4.94l-9.78 0 0 86.93 -59 0 0 -253.1 61.38 0c36.43,0 60.45,4.59 72.2,13.79 11.7,9.25 17.57,26.3 17.57,51.15l0 28.98c0,14.66 -3.2,25.83 -9.54,33.51 -6.4,7.62 -16.76,12.8 -31.19,15.42 13.38,1.92 23.33,6.46 29.73,13.62 6.4,7.15 9.66,17.28 9.66,30.31l0 66.33 -58.01 0 0 -63.94z"/>
  <path id="7" class="fil3" d="M2662.78 1903.42l0 -133.47c0,-7.04 -1.05,-11.76 -3.14,-14.14 -2.09,-2.39 -6.22,-3.61 -12.45,-3.61 -6.34,0 -10.59,1.22 -12.68,3.61 -2.09,2.39 -3.15,7.1 -3.15,14.14l0 133.47c0,7.16 1.05,11.93 3.15,14.26 2.09,2.33 6.34,3.49 12.68,3.49 6.23,0 10.36,-1.16 12.45,-3.49 2.09,-2.33 3.14,-7.1 3.14,-14.26zm60.39 -8.32c0,17.39 -0.99,29.79 -2.91,37.24 -1.92,7.45 -5.3,13.73 -10.06,18.85 -5.12,5.59 -11.52,9.48 -19.26,11.7 -7.68,2.21 -22.28,3.31 -43.81,3.31 -21.59,0 -36.25,-1.11 -43.93,-3.31 -7.74,-2.21 -14.2,-6.11 -19.32,-11.7 -4.77,-5.24 -8.15,-11.69 -10.18,-19.37 -2.04,-7.68 -3.08,-19.9 -3.08,-36.71l0 -117.01c0,-16.81 0.99,-29.04 2.96,-36.66 1.98,-7.62 5.47,-14.02 10.3,-19.26 5.24,-5.7 12.16,-9.66 20.71,-11.93 8.61,-2.27 22.81,-3.43 42.54,-3.43 19.67,0 33.74,1.16 42.18,3.43 8.5,2.27 15.36,6.22 20.6,11.93 4.83,5.24 8.32,11.64 10.3,19.26 1.98,7.62 2.96,19.84 2.96,36.66l0 117.01z"/>
  <path id="8" class="fil3" d="M2843.21 1709.96l59 0 0 192.76c0,7.04 1.05,11.75 3.08,14.14 2.04,2.39 6.23,3.61 12.63,3.61 6.29,0 10.48,-1.22 12.57,-3.61 2.09,-2.39 3.14,-7.1 3.14,-14.14l0 -192.76 56.56 0 0 171.47c0,19.78 -1.05,34.27 -3.09,43.4 -2.04,9.14 -5.41,16.93 -10.18,23.28 -5.12,6.63 -12.1,11.29 -20.89,14.02 -8.78,2.73 -21.99,4.07 -39.56,4.07 -17.98,0 -31.24,-1.34 -39.85,-4.07 -8.67,-2.74 -15.48,-7.39 -20.48,-14.02 -4.65,-6.11 -7.97,-13.67 -9.95,-22.69 -1.98,-8.96 -2.96,-23.62 -2.96,-43.98l0 -171.47z"/>
  <path id="9" class="fil3" d="M3172.41 1891.14l0 71.91 -59 0 0 -253.1 59.35 0c36.25,0 60.28,4.65 72.09,13.91 11.75,9.25 17.63,26.24 17.63,51.03l0 51.26c0,24.32 -5.76,41.25 -17.22,50.74 -11.52,9.48 -32.52,14.26 -63.13,14.26l-9.72 0zm30.72 -64.65l0 -53.64c0,-7.04 -1.22,-11.81 -3.61,-14.37 -2.39,-2.56 -7.04,-3.84 -13.96,-3.84l-13.15 0 0 90.07 13.15 0c6.93,0 11.58,-1.28 13.96,-3.84 2.39,-2.56 3.61,-7.33 3.61,-14.37z"/>
 </g>
</svg>
