<svg id="Layer_1" data-name="Layer 1" xmlns="http://www.w3.org/2000/svg" viewBox="0 0 1922.5 198.62"><title>MockUp Swatches</title><rect x="0.5" y="0.5" width="1921.5" height="197.62" fill="#fff" stroke="#000" stroke-miterlimit="10"/><rect x="26.9" y="34.06" width="89.51" height="89.51" fill="#d3b178" stroke="#000" stroke-miterlimit="10"/><rect x="126.86" y="34.06" width="89.51" height="89.51" fill="#dccbae" stroke="#000" stroke-miterlimit="10"/><rect x="224.73" y="34.06" width="89.51" height="89.51" fill="#fedf8f" stroke="#000" stroke-miterlimit="10"/><rect x="324.69" y="34.06" width="89.51" height="89.51" fill="#44652f" stroke="#000" stroke-miterlimit="10"/><rect x="618.02" y="33.49" width="89.51" height="89.51" fill="#bb2135" stroke="#000" stroke-miterlimit="10"/><rect x="719.72" y="33.49" width="89.51" height="89.51" stroke="#000" stroke-miterlimit="10"/><rect x="817.59" y="33.49" width="89.51" height="89.51" fill="#050608" stroke="#000" stroke-miterlimit="10"/><rect x="912.57" y="33.49" width="89.51" height="89.51" fill="#060606" stroke="#000" stroke-miterlimit="10"/><rect x="1207.34" y="32.93" width="89.51" height="89.51" fill="#999" stroke="#000" stroke-miterlimit="10"/><rect x="1310.09" y="32.93" width="89.51" height="89.51" fill="#ccc" stroke="#000" stroke-miterlimit="10"/><rect x="1407.96" y="32.93" width="89.51" height="89.51" fill="#e5e6e4" stroke="#000" stroke-miterlimit="10"/><rect x="1507.91" y="32.93" width="89.51" height="89.51" fill="#f2f2f2" stroke="#000" stroke-miterlimit="10"/><rect x="419.42" y="34.06" width="89.51" height="89.51" fill="#589643" stroke="#000" stroke-miterlimit="10"/><rect x="519.38" y="34.06" width="89.51" height="89.51" fill="#004eff" stroke="#000" stroke-miterlimit="10"/><rect x="1007.31" y="33.49" width="89.51" height="89.51" fill="#333" stroke="#000" stroke-miterlimit="10"/><rect x="1107.27" y="33.49" width="89.51" height="89.51" fill="#4d4d4d" stroke="#000" stroke-miterlimit="10"/><rect x="1602.65" y="32.93" width="89.51" height="89.51" fill="#fcfcfc" stroke="#000" stroke-miterlimit="10"/><rect x="1702.61" y="32.93" width="89.51" height="89.51" fill="#fefefe" stroke="#000" stroke-miterlimit="10"/><rect x="1801.74" y="34" width="89.51" height="89.51" fill="#fff" stroke="#000" stroke-miterlimit="10"/><text transform="translate(53.21 144.56)" font-size="17.4" font-family="MyriadPro-Regular, Myriad Pro">R:211<tspan x="0" y="20.88">G:177</tspan><tspan x="0" y="41.76">B:120</tspan></text><text transform="translate(150.16 142.07)" font-size="17.4" font-family="MyriadPro-Regular, Myriad Pro">R:220<tspan x="0" y="20.88">G:203</tspan><tspan x="0" y="41.76">B:174</tspan></text><text transform="translate(248.35 145.8)" font-size="17.4" font-family="MyriadPro-Regular, Myriad Pro">R:254<tspan x="0" y="20.88">G:223</tspan><tspan x="0" y="41.76">B:143</tspan></text><text transform="translate(345.29 143.31)" font-size="17.4" font-family="MyriadPro-Regular, Myriad Pro">R:68<tspan x="0" y="20.88">G:101</tspan><tspan x="0" y="41.76">B:47</tspan></text><text transform="translate(444.72 143.31)" font-size="17.4" font-family="MyriadPro-Regular, Myriad Pro">R:88<tspan x="0" y="20.88">G:150</tspan><tspan x="0" y="41.76">B:67</tspan></text><text transform="translate(541.67 143.31)" font-size="17.4" font-family="MyriadPro-Regular, Myriad Pro">R:0<tspan x="0" y="20.88">G:78</tspan><tspan x="0" y="41.76">B:255</tspan></text><text transform="translate(647.31 144.56)" font-size="17.4" font-family="MyriadPro-Regular, Myriad Pro">R:187<tspan x="0" y="20.88">G:33</tspan><tspan x="0" y="41.76">B:53</tspan></text><text transform="translate(744.26 142.07)" font-size="17.4" font-family="MyriadPro-Regular, Myriad Pro">R:0<tspan x="0" y="20.88">G:0</tspan><tspan x="0" y="41.76">B:0</tspan></text><text transform="translate(842.45 145.8)" font-size="17.4" font-family="MyriadPro-Regular, Myriad Pro">R:5<tspan x="0" y="20.88">G:6</tspan><tspan x="0" y="41.76">B:8</tspan></text><text transform="translate(939.39 144.56)" font-size="17.4" font-family="MyriadPro-Regular, Myriad Pro">R:6<tspan x="0" y="20.88">G:6</tspan><tspan x="0" y="41.76">B:6</tspan></text><text transform="translate(1038.82 144.56)" font-size="17.4" font-family="MyriadPro-Regular, Myriad Pro">R:51<tspan x="0" y="20.88">G:51</tspan><tspan x="0" y="41.76">B:51</tspan></text><text transform="translate(1135.77 144.56)" font-size="17.4" font-family="MyriadPro-Regular, Myriad Pro">R:77<tspan x="0" y="20.88">G:77</tspan><tspan x="0" y="41.76">B:77</tspan></text><text transform="translate(1233.96 143.31)" font-size="17.4" font-family="MyriadPro-Regular, Myriad Pro">R:153<tspan x="0" y="20.88">G:153</tspan><tspan x="0" y="41.76">B:153</tspan></text><text transform="translate(1330.9 143.31)" font-size="17.4" font-family="MyriadPro-Regular, Myriad Pro">R:204<tspan x="0" y="20.88">G:204</tspan><tspan x="0" y="41.76">B:204</tspan></text><text transform="translate(1429.09 144.56)" font-size="17.4" font-family="MyriadPro-Regular, Myriad Pro">R:229<tspan x="0" y="20.88">G:230</tspan><tspan x="0" y="41.76">B:228</tspan></text><text transform="translate(1526.03 143.31)" font-size="17.4" font-family="MyriadPro-Regular, Myriad Pro">R:242<tspan x="0" y="20.88">G:242</tspan><tspan x="0" y="41.76">B:242</tspan></text><text transform="translate(1625.46 144.56)" font-size="17.4" font-family="MyriadPro-Regular, Myriad Pro">R:252<tspan x="0" y="20.88">G:252</tspan><tspan x="0" y="41.76">B:252</tspan></text><text transform="translate(1722.41 143.31)" font-size="17.4" font-family="MyriadPro-Regular, Myriad Pro">R:254<tspan x="0" y="20.88">G:254</tspan><tspan x="0" y="41.76">B:254</tspan></text><text transform="translate(1833.03 143.31)" font-size="17.4" font-family="MyriadPro-Regular, Myriad Pro">R:255<tspan x="0" y="20.88">G:255</tspan><tspan x="0" y="41.76">B:255</tspan></text></svg>